<mxfile host="app.diagrams.net" modified="2023-09-30T05:12:02.686Z" agent="Mozilla/5.0 (Windows NT 10.0; Win64; x64) AppleWebKit/537.36 (KHTML, like Gecko) Chrome/117.0.0.0 Safari/537.36" version="21.8.2" etag="iiuCHFRhtwEg7Uj92vM_" type="github">
  <diagram name="페이지-1" id="cPLgGWlZJsqycYFtdL6u">
    <mxGraphModel>
      <root>
        <mxCell id="0" />
        <mxCell id="1" parent="0" />
      </root>
    </mxGraphModel>
  </diagram>
</mxfile>
